<?xml version="1.0" encoding="UTF-8" standalone="no"?>
<!-- Generator: Adobe Illustrator 24.2.0, SVG Export Plug-In . SVG Version: 6.00 Build 0)  -->

<svg
   version="1.1"
   id="Layer_1"
   x="0px"
   y="0px"
   viewBox="0 0 903.41127 999.99999"
   xml:space="preserve"
   sodipodi:docname="Mac_Finder_1995.svg"
   width="903.41125"
   height="1000"
   inkscape:version="1.3.2 (091e20e, 2023-11-25, custom)"
   xmlns:inkscape="http://www.inkscape.org/namespaces/inkscape"
   xmlns:sodipodi="http://sodipodi.sourceforge.net/DTD/sodipodi-0.dtd"
   xmlns="http://www.w3.org/2000/svg"
   xmlns:svg="http://www.w3.org/2000/svg"><defs
   id="defs11" /><sodipodi:namedview
   id="namedview11"
   pagecolor="#ffffff"
   bordercolor="#000000"
   borderopacity="0.25"
   inkscape:showpageshadow="2"
   inkscape:pageopacity="0.0"
   inkscape:pagecheckerboard="0"
   inkscape:deskcolor="#d1d1d1"
   inkscape:zoom="0.509"
   inkscape:cx="451.86641"
   inkscape:cy="500"
   inkscape:window-width="1366"
   inkscape:window-height="705"
   inkscape:window-x="-8"
   inkscape:window-y="-8"
   inkscape:window-maximized="1"
   inkscape:current-layer="Layer_1" />
<style
   type="text/css"
   id="style1">
	.st0{fill:#7D9EEC;}
	.st1{fill:#CAD3F4;}
	.st2{fill:#181A1E;}
	.st3{fill:#0E33A1;}
	.st4{fill:#0D36A8;}
	.st5{fill:#181920;}
</style>

<g
   id="g11"
   transform="matrix(3.8328862,0,0,3.8328862,-23.763894,0)">
	<g
   id="g4">
		<path
   class="st0"
   d="M 6.2,33.3 H 137.9 L 113,89 l -10.6,52.8 37.4,3.8 5.8,81.3 H 6.2 Z"
   id="path4" />
	</g>
	<g
   id="g5">
		<path
   class="st1"
   d="m 137.6,33.3 h 104.3 v 193.6 h -97 l -3.8,-83.3 -39.2,0.7 8.9,-55.5 z"
   id="path5" />
	</g>
	<g
   id="g6">
		<path
   class="st2"
   d="m 142.8,190.9 -0.2,-11.4 c 22.9,-0.5 41.8,-5.6 57.8,-15.7 l 5.5,9.8 c -17.6,11.1 -38.3,16.7 -63.1,17.3 z"
   id="path6" />
	</g>
	<g
   id="g7">
		<path
   class="st3"
   d="m 120.8,191.8 c -30,0 -55.3,-6 -78.4,-18.6 l 5,-10.2 c 25.5,13.9 53.9,19.2 89.4,16.8 l 0.7,11.4 c -5.8,0.4 -11.3,0.6 -16.7,0.6 z"
   id="path7" />
	</g>
	<g
   id="g8">
		<rect
   x="65.199997"
   y="65.400002"
   class="st4"
   width="10.8"
   height="29.200001"
   id="rect7" />
	</g>
	<g
   id="g9">
		<rect
   x="165.5"
   y="65.400002"
   class="st5"
   width="10.8"
   height="29.200001"
   id="rect8" />
	</g>
	<g
   id="g10">
		<path
   class="st2"
   d="M 152,260.9 C 134.9,225.4 130,185.2 138.2,149.3 H 96.7 l 0.3,-6 C 99.4,94.3 119.6,44.8 155.5,0 l 8.3,7.4 c -32.8,41 -51.9,86 -55.5,130.5 h 44.4 l -2.1,7.4 c -9.8,34.3 -5.6,75.6 11.2,110.4 z"
   id="path9" />
	</g>
</g>
</svg>
